<?xml version="1.0" encoding="utf-8"?>
<!-- Generator: Adobe Illustrator 16.0.0, SVG Export Plug-In . SVG Version: 6.00 Build 0)  -->
<!DOCTYPE svg PUBLIC "-//W3C//DTD SVG 1.1//EN" "http://www.w3.org/Graphics/SVG/1.1/DTD/svg11.dtd">
<svg version="1.1" id="Capa_1" xmlns="http://www.w3.org/2000/svg" xmlns:xlink="http://www.w3.org/1999/xlink" x="0px" y="0px"
	 width="841.89px" height="595.28px" viewBox="0 0 841.89 595.28" enable-background="new 0 0 841.89 595.28" xml:space="preserve">
<path fill="#FF5000" d="M71.727,326.519v-91.899h20.971v72.275h39.937l1.213,19.624H71.727z"/>
<path fill="#FF5000" d="M397.667,326.519H334.06v-91.899h63.607v19.624h-42.636v16.097h27.474v19.624h-27.474v16.931h42.636V326.519
	z"/>
<path fill="#FF5000" d="M212.618,326.519H149.01v-91.899h63.608v19.624h-42.637v16.097h27.474v19.624h-27.474v16.931h42.637V326.519
	z"/>
<path fill="#FF5000" d="M296.733,242.764c0.556-1.283,1.282-2.426,2.181-3.432c0.898-1.004,1.902-1.859,3.013-2.564
	c1.113-0.705,2.32-1.239,3.624-1.604c1.305-0.362,2.663-0.545,4.073-0.545h13.595L274.031,347.37l-9.042-20.852l-40.146-91.899
	h13.531c1.324,0,2.65,0.203,3.976,0.609c1.325,0.406,2.565,0.984,3.72,1.731c1.155,0.748,2.191,1.614,3.11,2.597
	c0.919,0.984,1.636,2.053,2.148,3.207l20.908,48.034c0.297,0.685,0.544,1.442,0.737,2.276s0.374,1.614,0.544,2.341
	c0.171,0.856,0.321,1.71,0.448,2.565c0.044-0.812,0.151-1.625,0.321-2.438c0.129-0.726,0.3-1.496,0.514-2.308
	c0.213-0.813,0.49-1.582,0.833-2.31L296.733,242.764z"/>
<path fill="#FF5000" d="M430.365,280.537c0,3.549,0.705,6.894,2.115,10.036c1.412,3.142,3.313,5.891,5.708,8.241
	c2.394,2.352,5.172,4.2,8.337,5.547c3.163,1.347,6.52,2.021,10.068,2.021c2.736,0,5.313-0.417,7.729-1.251
	c2.415-0.833,4.67-1.956,6.766-3.366c2.266-1.54,4.83-2.31,7.695-2.31c2.224,0,4.126,0.354,5.708,1.059
	c1.581,0.705,3.035,1.722,4.361,3.046l5.451,5.451c-2.652,2.822-5.462,5.366-8.435,7.632c-2.971,2.267-6.05,4.19-9.234,5.771
	c-3.186,1.582-6.467,2.801-9.844,3.655c-3.377,0.855-6.776,1.284-10.197,1.284c-4.318,0-8.487-0.557-12.505-1.669
	c-4.02-1.11-7.782-2.683-11.288-4.714c-3.505-2.029-6.691-4.466-9.555-7.311c-2.865-2.843-5.323-5.996-7.375-9.459
	s-3.645-7.193-4.778-11.191c-1.133-3.997-1.699-8.154-1.699-12.473s0.566-8.476,1.699-12.475c1.133-3.997,2.726-7.728,4.778-11.189
	c2.052-3.464,4.51-6.615,7.375-9.46c2.863-2.843,6.05-5.279,9.555-7.311c3.506-2.03,7.269-3.602,11.288-4.714
	c4.018-1.111,8.187-1.667,12.505-1.667c3.421,0,6.82,0.427,10.197,1.282s6.658,2.074,9.844,3.656
	c3.185,1.582,6.264,3.506,9.234,5.771c2.973,2.266,5.782,4.81,8.435,7.631l-5.451,5.451c-1.282,1.282-2.758,2.299-4.425,3.046
	c-1.668,0.749-3.55,1.122-5.645,1.122c-2.821,0-5.387-0.79-7.695-2.372c-2.139-1.452-4.415-2.586-6.83-3.398
	c-2.416-0.812-4.971-1.22-7.664-1.22c-3.549,0-6.905,0.685-10.068,2.053c-3.165,1.369-5.943,3.217-8.337,5.547
	c-2.396,2.331-4.296,5.066-5.708,8.209C431.07,273.643,430.365,276.988,430.365,280.537z"/>
<path fill="#FF5000" d="M505.431,254.18v-19.625h72.084v19.625H551.99v72.339H531.02V254.18H505.431z"/>
<path fill="#FF5000" d="M588.686,280.537c0-4.318,0.566-8.476,1.7-12.475c1.132-3.997,2.726-7.728,4.778-11.189
	c2.052-3.464,4.51-6.615,7.374-9.46c2.864-2.843,6.05-5.279,9.556-7.311c3.506-2.03,7.268-3.602,11.287-4.714
	c4.018-1.111,8.188-1.667,12.506-1.667c4.317,0,8.486,0.556,12.506,1.667c4.018,1.112,7.781,2.684,11.287,4.714
	c3.504,2.031,6.69,4.468,9.555,7.311c2.865,2.845,5.324,5.996,7.376,9.46c2.052,3.462,3.644,7.192,4.777,11.189
	c1.132,3.999,1.7,8.156,1.7,12.475s-0.568,8.476-1.7,12.473c-1.134,3.998-2.726,7.729-4.777,11.191s-4.511,6.616-7.376,9.459
	c-2.864,2.845-6.051,5.281-9.555,7.311c-3.506,2.031-7.27,3.604-11.287,4.714c-4.02,1.112-8.188,1.669-12.506,1.669
	c-4.36,0-8.54-0.557-12.538-1.669c-3.998-1.11-7.749-2.683-11.255-4.714c-3.506-2.029-6.691-4.466-9.556-7.311
	c-2.864-2.843-5.322-5.996-7.374-9.459c-2.053-3.463-3.646-7.193-4.778-11.191C589.252,289.013,588.686,284.855,588.686,280.537z
	 M609.657,280.537c0,3.549,0.705,6.894,2.116,10.036c1.41,3.142,3.313,5.891,5.707,8.241c2.395,2.352,5.174,4.2,8.338,5.547
	s6.52,2.021,10.068,2.021c3.505,0,6.851-0.674,10.037-2.021c3.184-1.347,5.974-3.195,8.368-5.547c2.395-2.351,4.297-5.1,5.708-8.241
	c1.41-3.143,2.116-6.487,2.116-10.036S661.41,273.643,660,270.5c-1.411-3.143-3.313-5.878-5.708-8.209
	c-2.395-2.33-5.185-4.178-8.368-5.547c-3.187-1.368-6.532-2.053-10.037-2.053c-3.549,0-6.904,0.685-10.068,2.053
	c-3.164,1.369-5.943,3.217-8.338,5.547c-2.395,2.331-4.297,5.066-5.707,8.209C610.362,273.643,609.657,276.988,609.657,280.537z"/>
<path fill="#FF5000" d="M715.352,326.519h-20.97v-91.899h36.041c3.463,0,6.658,0.449,9.587,1.347s5.58,2.106,7.953,3.624
	s4.467,3.313,6.285,5.387c1.816,2.074,3.334,4.297,4.554,6.669c1.218,2.373,2.136,4.821,2.757,7.343
	c0.619,2.523,0.93,5.025,0.93,7.504c0,2.437-0.267,4.863-0.801,7.278c-0.535,2.416-1.379,4.778-2.534,7.087
	c-1.154,2.309-2.651,4.521-4.489,6.638c-1.839,2.116-4.062,4.095-6.669,5.933l24.498,33.091h-17.508h-0.385
	c-0.385,0-1.037-0.064-1.956-0.192c-0.92-0.128-1.956-0.427-3.11-0.897c-1.154-0.47-2.373-1.175-3.656-2.116
	c-1.282-0.939-2.5-2.245-3.655-3.912l-15.391-20.843h-11.48V326.519z M731.513,277.458c1.283,0,2.522-0.32,3.72-0.962
	c1.197-0.641,2.255-1.475,3.175-2.5c0.919-1.027,1.656-2.191,2.213-3.496c0.555-1.303,0.833-2.618,0.833-3.943
	s-0.278-2.64-0.833-3.945c-0.557-1.303-1.294-2.469-2.213-3.494c-0.92-1.025-1.978-1.859-3.175-2.501s-2.437-0.962-3.72-0.962
	h-16.161v21.804H731.513z"/>
<g>
	<path fill="#FF5000" d="M419.034,341.025h1.59l-5.749,21.403h-1.59L419.034,341.025z"/>
	<path fill="#FF5000" d="M433.281,341.025h4.801c1.672,0,3.23,0.234,4.678,0.703c1.447,0.47,2.66,1.193,3.639,2.171
		c0.754,0.755,1.335,1.632,1.743,2.63c0.407,0.999,0.611,2.16,0.611,3.485c0,1.651-0.285,3.175-0.856,4.571
		c-0.57,1.396-1.396,2.635-2.477,3.715c-1.284,1.284-2.864,2.293-4.739,3.027c-1.876,0.733-3.924,1.101-6.146,1.101h-7.002
		L433.281,341.025z M434.78,360.961c1.936,0,3.704-0.316,5.305-0.948c1.6-0.632,2.991-1.538,4.174-2.721
		c0.917-0.917,1.625-1.982,2.124-3.195c0.5-1.213,0.75-2.532,0.75-3.96c0-2.201-0.663-3.943-1.987-5.229
		c-0.796-0.795-1.8-1.396-3.013-1.804c-1.213-0.407-2.583-0.611-4.112-0.611h-3.516l-4.953,18.468H434.78z"/>
	<path fill="#FF5000" d="M463.001,341.025h15.074l-0.397,1.468h-13.484l-2.263,8.408h12.108l-0.397,1.468h-12.108l-2.293,8.592
		h13.637l-0.397,1.468h-15.227L463.001,341.025z"/>
	<path fill="#FF5000" d="M496.817,340.873h1.528l4.189,21.556h-1.62l-1.101-5.993h-12.629l-4.342,5.993h-1.772L496.817,340.873z
		 M499.508,355.029l-2.293-12.383l-8.989,12.383H499.508z"/>
	<path fill="#FF5000" d="M520.574,362.734c-1.957,0-3.644-0.361-5.061-1.086c-1.417-0.723-2.573-1.717-3.47-2.98l1.223-0.887
		c0.917,1.182,1.962,2.069,3.134,2.66c1.173,0.591,2.615,0.887,4.327,0.887c0.876,0,1.691-0.117,2.446-0.353
		c0.754-0.234,1.406-0.562,1.957-0.979c0.55-0.419,0.982-0.914,1.299-1.485s0.474-1.194,0.474-1.868
		c0-0.469-0.081-0.893-0.244-1.271c-0.163-0.377-0.429-0.735-0.795-1.071c-0.367-0.337-0.852-0.664-1.452-0.98
		c-0.602-0.315-1.33-0.648-2.187-0.995c-1.101-0.429-2.038-0.842-2.813-1.24c-0.774-0.397-1.406-0.816-1.896-1.255
		c-0.489-0.439-0.846-0.919-1.069-1.439c-0.225-0.521-0.337-1.107-0.337-1.762c0-0.815,0.184-1.581,0.551-2.295
		c0.366-0.715,0.887-1.338,1.559-1.868c0.673-0.531,1.478-0.955,2.416-1.271c0.938-0.316,1.987-0.476,3.149-0.476
		c1.609,0,3.058,0.302,4.342,0.902c1.284,0.602,2.313,1.381,3.088,2.339l-1.223,0.979c-0.775-0.918-1.692-1.615-2.752-2.095
		c-1.061-0.479-2.263-0.719-3.608-0.719c-0.917,0-1.742,0.123-2.477,0.368c-0.733,0.244-1.351,0.566-1.85,0.964
		c-0.5,0.398-0.887,0.858-1.162,1.379c-0.274,0.521-0.413,1.066-0.413,1.638c0,0.49,0.103,0.934,0.307,1.332
		c0.203,0.398,0.514,0.766,0.933,1.103c0.417,0.337,0.947,0.664,1.589,0.979c0.643,0.316,1.402,0.639,2.278,0.965
		c0.999,0.367,1.854,0.745,2.568,1.133s1.3,0.807,1.759,1.256c0.458,0.449,0.799,0.939,1.023,1.47
		c0.225,0.531,0.337,1.123,0.337,1.776c0,0.877-0.199,1.694-0.597,2.449c-0.397,0.756-0.947,1.414-1.65,1.975
		c-0.704,0.562-1.545,1.006-2.523,1.332C522.776,362.57,521.716,362.734,520.574,362.734z"/>
	<path fill="#FF5000" d="M559.404,341.025h1.591l-5.749,21.403h-1.59L559.404,341.025z"/>
	<path fill="#FF5000" d="M573.684,341.025h1.468l9.632,18.743l5.045-18.743h1.527l-5.748,21.403h-1.161l-9.845-19.141l-5.137,19.141
		h-1.529L573.684,341.025z"/>
	<path fill="#FF5000" d="M619.119,341.025h1.314l5.197,12.658l11.986-12.658h1.682l-5.748,21.403h-1.59l4.983-18.59l-11.771,12.321
		h-0.122l-5.168-12.321l-4.984,18.59h-1.528L619.119,341.025z"/>
	<path fill="#FF5000" d="M657.124,362.826c-1.346,0-2.584-0.24-3.715-0.719c-1.132-0.479-2.105-1.131-2.92-1.957
		c-0.815-0.825-1.452-1.799-1.911-2.92s-0.688-2.323-0.688-3.607c0-1.672,0.321-3.287,0.964-4.847
		c0.642-1.56,1.523-2.94,2.645-4.143s2.426-2.166,3.914-2.89c1.487-0.723,3.088-1.086,4.8-1.086c1.346,0,2.584,0.24,3.715,0.719
		c1.132,0.479,2.104,1.132,2.92,1.957c0.815,0.826,1.452,1.799,1.911,2.92s0.688,2.324,0.688,3.607c0,1.672-0.321,3.287-0.964,4.847
		c-0.642,1.56-1.523,2.94-2.645,4.144c-1.121,1.202-2.426,2.166-3.914,2.889C660.436,362.464,658.836,362.826,657.124,362.826z
		 M657.119,361.42c1.513,0,2.919-0.327,4.218-0.981c1.298-0.655,2.429-1.519,3.39-2.592c0.961-1.074,1.719-2.306,2.271-3.696
		s0.829-2.822,0.829-4.294c0-1.104-0.186-2.127-0.553-3.067c-0.369-0.94-0.886-1.764-1.55-2.469
		c-0.665-0.706-1.462-1.258-2.393-1.657c-0.931-0.398-1.969-0.598-3.114-0.598c-1.513,0-2.92,0.327-4.218,0.981
		c-1.299,0.654-2.429,1.519-3.39,2.592s-1.719,2.306-2.271,3.695c-0.552,1.392-0.828,2.822-0.828,4.295
		c0,1.104,0.184,2.127,0.552,3.067s0.885,1.764,1.55,2.469c0.665,0.706,1.462,1.258,2.393,1.656
		C654.936,361.221,655.973,361.42,657.119,361.42z"/>
	<path fill="#FF5000" d="M688.678,342.493h-7.46l0.397-1.468h16.511l-0.397,1.468h-7.461l-5.351,19.936h-1.59L688.678,342.493z"/>
	<path fill="#FF5000" d="M708.919,341.025h1.59l-5.748,21.403h-1.591L708.919,341.025z"/>
	<path fill="#FF5000" d="M728.518,362.826c-1.346,0-2.584-0.24-3.715-0.719c-1.132-0.479-2.105-1.131-2.92-1.957
		c-0.816-0.825-1.453-1.799-1.911-2.92c-0.459-1.121-0.688-2.323-0.688-3.607c0-1.672,0.321-3.287,0.963-4.847
		c0.643-1.56,1.524-2.94,2.646-4.143c1.12-1.202,2.425-2.166,3.913-2.89c1.488-0.723,3.089-1.086,4.801-1.086
		c1.346,0,2.584,0.24,3.715,0.719c1.131,0.479,2.104,1.132,2.92,1.957c0.815,0.826,1.453,1.799,1.911,2.92
		c0.459,1.121,0.688,2.324,0.688,3.607c0,1.672-0.321,3.287-0.964,4.847c-0.642,1.56-1.523,2.94-2.645,4.144
		c-1.121,1.202-2.426,2.166-3.913,2.889C731.83,362.464,730.229,362.826,728.518,362.826z M728.512,361.42
		c1.514,0,2.92-0.327,4.219-0.981c1.299-0.655,2.429-1.519,3.39-2.592c0.962-1.074,1.718-2.306,2.271-3.696s0.828-2.822,0.828-4.294
		c0-1.104-0.185-2.127-0.552-3.067c-0.368-0.94-0.886-1.764-1.55-2.469c-0.665-0.706-1.463-1.258-2.393-1.657
		c-0.931-0.398-1.969-0.598-3.114-0.598c-1.513,0-2.92,0.327-4.218,0.981c-1.299,0.654-2.429,1.519-3.39,2.592
		c-0.962,1.073-1.718,2.306-2.271,3.695c-0.553,1.392-0.828,2.822-0.828,4.295c0,1.104,0.184,2.127,0.552,3.067
		s0.885,1.764,1.55,2.469c0.664,0.706,1.462,1.258,2.393,1.656C726.329,361.221,727.366,361.42,728.512,361.42z"/>
	<path fill="#FF5000" d="M755.179,341.025h1.468l9.632,18.743l5.045-18.743h1.528l-5.748,21.403h-1.162l-9.845-19.141l-5.137,19.141
		h-1.528L755.179,341.025z"/>
</g>
</svg>
